<?xml version="1.0" standalone="no"?>
<!DOCTYPE svg PUBLIC "-//W3C//DTD SVG 20010904//EN"
 "http://www.w3.org/TR/2001/REC-SVG-20010904/DTD/svg10.dtd">
<svg version="1.0" xmlns="http://www.w3.org/2000/svg"
 width="128.000000pt" height="128.000000pt" viewBox="0 0 128.000000 128.000000"
 preserveAspectRatio="xMidYMid meet">
<metadata>
Created by potrace 1.11, written by Peter Selinger 2001-2013
</metadata>
<g transform="translate(0.000000,128.000000) scale(0.100000,-0.100000)"
fill="#000000" stroke="none">
<path d="M695 1156 c-22 -6 -45 -14 -51 -18 -12 -8 -95 -23 -107 -20 -5 1 -6
-2 -3 -7 4 -5 -3 -13 -15 -16 -11 -4 -27 -21 -36 -38 -24 -53 -39 -77 -45 -72
-3 3 -15 -16 -28 -42 -12 -26 -29 -52 -37 -58 -14 -11 -25 -56 -26 -110 0 -37
40 -132 52 -119 4 5 12 36 18 69 13 70 63 185 97 222 20 21 35 27 83 29 125 7
157 6 161 -5 2 -6 9 -8 15 -4 6 4 8 0 4 -10 -4 -11 -2 -14 9 -10 23 9 43 -16
42 -53 -1 -19 -6 -34 -11 -34 -5 0 -4 -6 2 -14 15 -18 -3 -32 -67 -51 -58 -17
-66 -27 -67 -72 0 -17 -3 -35 -7 -39 -5 -4 -8 -12 -8 -18 0 -5 6 -2 14 9 12
17 80 29 69 13 -8 -14 10 -8 29 9 10 9 21 14 23 11 3 -3 -8 -14 -26 -25 l-31
-20 26 -5 c14 -3 26 -1 26 4 0 5 4 6 10 3 5 -3 8 -19 6 -35 -2 -17 1 -30 7
-30 5 0 -3 -10 -18 -22 l-28 -22 21 -17 c21 -17 21 -17 -10 -15 -35 1 -46 -24
-21 -49 13 -13 13 -15 -1 -15 -10 0 -13 -6 -10 -15 4 -8 1 -15 -5 -15 -6 0
-11 -7 -11 -15 0 -8 -7 -15 -17 -15 -9 0 -13 -3 -10 -7 11 -10 -71 -53 -102
-53 -25 -1 -26 -1 -6 -17 19 -15 18 -15 -15 -9 -26 5 -32 4 -23 -5 7 -7 25
-12 42 -12 26 0 29 -3 27 -30 -1 -16 -11 -36 -21 -43 -17 -12 -17 -14 -2 -14
9 0 17 5 17 10 0 6 4 10 10 10 6 0 6 -9 0 -25 -7 -18 -6 -25 2 -25 7 0 3 -7
-8 -16 -10 -8 -13 -13 -6 -9 11 6 16 -6 13 -32 -1 -9 15 -10 56 -7 32 3 76 6
98 7 22 0 34 2 27 5 -10 3 -9 8 4 23 18 20 40 27 29 9 -3 -5 -1 -10 4 -10 6 0
11 5 11 10 0 6 5 10 11 10 6 0 8 -7 4 -17 -3 -10 13 2 36 26 47 49 45 53 -33
72 -27 6 -46 14 -44 17 8 14 -14 53 -25 46 -7 -4 -9 -3 -6 3 11 18 17 73 8 73
-5 0 -7 9 -4 20 3 11 11 20 17 20 14 0 66 52 66 66 0 8 52 78 93 125 25 28 32
49 43 132 5 33 3 47 -5 47 -7 0 -9 5 -6 10 3 6 1 10 -4 10 -6 0 -11 6 -11 14
0 7 -7 27 -15 42 -8 16 -15 41 -15 56 0 19 -15 41 -50 76 -27 27 -50 56 -50
64 0 31 -41 68 -92 83 -29 8 -52 14 -52 14 -1 -1 -19 -7 -41 -13z m-295 -290
c0 -2 -7 -7 -16 -10 -8 -3 -12 -2 -9 4 6 10 25 14 25 6z m16 -21 c-11 -8 -22
-12 -25 -9 -6 6 19 24 34 24 6 -1 1 -7 -9 -15z m419 -35 c3 -5 1 -10 -4 -10
-6 0 -11 5 -11 10 0 6 2 10 4 10 3 0 8 -4 11 -10z m5 -61 c0 -11 -5 -17 -10
-14 -6 4 -8 10 -6 14 3 4 -8 6 -23 5 -16 -1 -35 2 -42 7 -9 6 2 9 34 9 41 0
47 -3 47 -21z m-100 -39 c0 -5 -5 -10 -11 -10 -5 0 -7 5 -4 10 3 6 8 10 11 10
2 0 4 -4 4 -10z m123 -37 c-3 -7 -9 -13 -15 -13 -5 0 -7 -4 -4 -8 2 -4 1 -14
-3 -21 -6 -9 -11 -10 -15 -2 -4 6 -3 11 2 11 5 0 9 7 9 15 0 8 -5 15 -11 15
-6 0 -5 4 2 8 20 13 41 10 35 -5z m-79 -168 c-4 -8 -7 -15 -9 -15 -2 0 -5 7
-9 15 -3 9 0 15 9 15 9 0 12 -6 9 -15z m40 -56 c-16 -16 -21 -17 -21 -5 0 8 4
13 9 10 4 -3 11 2 14 11 4 9 9 13 12 10 3 -3 -3 -15 -14 -26z m-30 -38 c3 -5
-1 -11 -9 -14 -9 -4 -12 -1 -8 9 6 16 10 17 17 5z m-4 -66 c0 -7 -78 -45 -92
-44 -7 0 10 11 37 24 59 28 55 26 55 20z m-122 -41 c18 -19 25 -44 11 -44 -5
0 -9 -4 -9 -9 0 -15 29 -21 56 -11 38 15 20 -7 -25 -30 -21 -10 -41 -17 -43
-15 -3 3 -2 26 2 51 6 39 4 47 -14 59 -11 8 -15 15 -8 15 8 0 21 -7 30 -16z
m27 -134 c9 8 15 8 20 0 3 -6 12 -7 18 -4 7 4 8 3 4 -2 -5 -5 -11 -8 -13 -6
-3 1 -12 -4 -20 -13 -17 -17 -44 -20 -44 -6 0 20 14 45 18 33 3 -10 7 -10 17
-2z"/>
<path d="M480 810 c-24 -6 -23 -7 10 -14 56 -13 116 -19 108 -11 -13 14 -94
31 -118 25z"/>
<path d="M483 753 c-31 -21 -29 -35 2 -23 15 6 25 6 25 0 0 -5 16 -12 36 -16
42 -8 59 8 41 38 -15 23 -73 24 -104 1z"/>
<path d="M700 599 c0 -6 -10 -10 -22 -9 -13 1 -39 1 -58 1 l-35 -2 35 -13 c20
-7 44 -9 56 -5 12 4 25 5 28 2 3 -4 6 3 6 15 0 12 -2 22 -5 22 -3 0 -5 -5 -5
-11z"/>
<path d="M535 500 c-5 -8 4 -11 29 -9 19 2 35 0 35 -5 -1 -18 28 -25 81 -19
64 7 62 6 55 25 -7 19 -189 26 -200 8z"/>
<path d="M620 40 c-13 -8 -12 -10 3 -10 9 0 17 5 17 10 0 12 -1 12 -20 0z"/>
<path d="M645 10 c3 -5 8 -10 11 -10 2 0 4 5 4 10 0 6 -5 10 -11 10 -5 0 -7
-4 -4 -10z"/>
</g>
</svg>
